<?xml version="1.0" encoding="UTF-8" standalone="no"?>
<!DOCTYPE svg PUBLIC "-//W3C//DTD SVG 1.1//EN"
 "http://www.w3.org/Graphics/SVG/1.1/DTD/svg11.dtd">
<!-- Generated by graphviz version 2.47.0 (20210316.0004)
 -->
<!-- Title: dependencies Pages: 1 -->
<svg width="1105pt" height="211pt"
 viewBox="0.00 0.00 1105.00 211.00" xmlns="http://www.w3.org/2000/svg" xmlns:xlink="http://www.w3.org/1999/xlink">
<g id="graph0" class="graph" transform="scale(1 1) rotate(0) translate(4 207)">
<title>dependencies</title>
<polygon fill="white" stroke="transparent" points="-4,4 -4,-207 1101,-207 1101,4 -4,4"/>
<text text-anchor="start" x="527.51" y="-42.4" font-family="sans-serif" font-weight="bold" font-size="14.00">Legend</text>
<polygon fill="#ffffb3" stroke="transparent" points="314.5,-10 314.5,-30 334.5,-30 334.5,-10 314.5,-10"/>
<text text-anchor="start" x="338.13" y="-15.4" font-family="sans-serif" font-size="14.00"> &#160;Declarations</text>
<polygon fill="#8dd3c7" stroke="transparent" points="427.5,-10 427.5,-30 447.5,-30 447.5,-10 427.5,-10"/>
<text text-anchor="start" x="451.23" y="-15.4" font-family="sans-serif" font-size="14.00"> &#160;Module</text>
<polygon fill="#80b1d3" stroke="transparent" points="513.5,-10 513.5,-30 533.5,-30 533.5,-10 513.5,-10"/>
<text text-anchor="start" x="537.28" y="-15.4" font-family="sans-serif" font-size="14.00"> &#160;Bootstrap</text>
<polygon fill="#fdb462" stroke="transparent" points="610.5,-10 610.5,-30 630.5,-30 630.5,-10 610.5,-10"/>
<text text-anchor="start" x="634.17" y="-15.4" font-family="sans-serif" font-size="14.00"> &#160;Providers</text>
<polygon fill="#fb8072" stroke="transparent" points="706.5,-10 706.5,-30 726.5,-30 726.5,-10 706.5,-10"/>
<text text-anchor="start" x="730.23" y="-15.4" font-family="sans-serif" font-size="14.00"> &#160;Exports</text>
<g id="clust1" class="cluster">
<title>cluster_AppModule</title>
<polygon fill="none" stroke="black" stroke-dasharray="1,5" points="8,-70 8,-195 1089,-195 1089,-70 8,-70"/>
</g>
<g id="clust6" class="cluster">
<title>cluster_AppModule_providers</title>
<polygon fill="none" stroke="black" points="951,-78 951,-130 1081,-130 1081,-78 951,-78"/>
</g>
<g id="clust3" class="cluster">
<title>cluster_AppModule_imports</title>
<polygon fill="none" stroke="black" points="16,-78 16,-130 943,-130 943,-78 16,-78"/>
</g>
<!-- AuthModule -->
<g id="node1" class="node">
<title>AuthModule</title>
<polygon fill="#8dd3c7" stroke="black" points="934.55,-122 931.55,-126 910.55,-126 907.55,-122 847.45,-122 847.45,-86 934.55,-86 934.55,-122"/>
<text text-anchor="middle" x="891" y="-99.8" font-family="Times,serif" font-size="14.00">AuthModule</text>
</g>
<!-- AppModule -->
<g id="node9" class="node">
<title>AppModule</title>
<polygon fill="#8dd3c7" stroke="black" points="591.66,-187 588.66,-191 567.66,-191 564.66,-187 508.34,-187 508.34,-151 591.66,-151 591.66,-187"/>
<text text-anchor="middle" x="550" y="-164.8" font-family="Times,serif" font-size="14.00">AppModule</text>
</g>
<!-- AuthModule&#45;&gt;AppModule -->
<g id="edge1" class="edge">
<title>AuthModule&#45;&gt;AppModule</title>
<path fill="none" stroke="black" d="M891,-122.13C891,-142.57 891,-173 891,-173 891,-173 601.81,-173 601.81,-173"/>
<polygon fill="black" stroke="black" points="601.81,-169.5 591.81,-173 601.81,-176.5 601.81,-169.5"/>
</g>
<!-- DoctorModule -->
<g id="node2" class="node">
<title>DoctorModule</title>
<polygon fill="#8dd3c7" stroke="black" points="829.42,-122 826.42,-126 805.42,-126 802.42,-122 730.58,-122 730.58,-86 829.42,-86 829.42,-122"/>
<text text-anchor="middle" x="780" y="-99.8" font-family="Times,serif" font-size="14.00">DoctorModule</text>
</g>
<!-- DoctorModule&#45;&gt;AppModule -->
<g id="edge2" class="edge">
<title>DoctorModule&#45;&gt;AppModule</title>
<path fill="none" stroke="black" d="M780,-122.27C780,-140.56 780,-166 780,-166 780,-166 601.92,-166 601.92,-166"/>
<polygon fill="black" stroke="black" points="601.92,-162.5 591.92,-166 601.92,-169.5 601.92,-162.5"/>
</g>
<!-- LicenceModule -->
<g id="node3" class="node">
<title>LicenceModule</title>
<polygon fill="#8dd3c7" stroke="black" points="712.85,-122 709.85,-126 688.85,-126 685.85,-122 609.15,-122 609.15,-86 712.85,-86 712.85,-122"/>
<text text-anchor="middle" x="661" y="-99.8" font-family="Times,serif" font-size="14.00">LicenceModule</text>
</g>
<!-- LicenceModule&#45;&gt;AppModule -->
<g id="edge3" class="edge">
<title>LicenceModule&#45;&gt;AppModule</title>
<path fill="none" stroke="black" d="M661,-122.01C661,-138.05 661,-159 661,-159 661,-159 601.96,-159 601.96,-159"/>
<polygon fill="black" stroke="black" points="601.96,-155.5 591.96,-159 601.96,-162.5 601.96,-155.5"/>
</g>
<!-- LogModule -->
<g id="node4" class="node">
<title>LogModule</title>
<polygon fill="#8dd3c7" stroke="black" points="591.1,-122 588.1,-126 567.1,-126 564.1,-122 508.9,-122 508.9,-86 591.1,-86 591.1,-122"/>
<text text-anchor="middle" x="550" y="-99.8" font-family="Times,serif" font-size="14.00">LogModule</text>
</g>
<!-- LogModule&#45;&gt;AppModule -->
<g id="edge4" class="edge">
<title>LogModule&#45;&gt;AppModule</title>
<path fill="none" stroke="black" d="M550,-122.11C550,-122.11 550,-140.99 550,-140.99"/>
<polygon fill="black" stroke="black" points="546.5,-140.99 550,-150.99 553.5,-140.99 546.5,-140.99"/>
</g>
<!-- LoginModule -->
<g id="node5" class="node">
<title>LoginModule</title>
<polygon fill="#8dd3c7" stroke="black" points="490.49,-122 487.49,-126 466.49,-126 463.49,-122 397.51,-122 397.51,-86 490.49,-86 490.49,-122"/>
<text text-anchor="middle" x="444" y="-99.8" font-family="Times,serif" font-size="14.00">LoginModule</text>
</g>
<!-- LoginModule&#45;&gt;AppModule -->
<g id="edge5" class="edge">
<title>LoginModule&#45;&gt;AppModule</title>
<path fill="none" stroke="black" d="M444,-122.01C444,-138.05 444,-159 444,-159 444,-159 498.11,-159 498.11,-159"/>
<polygon fill="black" stroke="black" points="498.11,-162.5 508.11,-159 498.11,-155.5 498.11,-162.5"/>
</g>
<!-- MeasureModule -->
<g id="node6" class="node">
<title>MeasureModule</title>
<polygon fill="#8dd3c7" stroke="black" points="379.74,-122 376.74,-126 355.74,-126 352.74,-122 272.26,-122 272.26,-86 379.74,-86 379.74,-122"/>
<text text-anchor="middle" x="326" y="-99.8" font-family="Times,serif" font-size="14.00">MeasureModule</text>
</g>
<!-- MeasureModule&#45;&gt;AppModule -->
<g id="edge6" class="edge">
<title>MeasureModule&#45;&gt;AppModule</title>
<path fill="none" stroke="black" d="M326,-122.27C326,-140.56 326,-166 326,-166 326,-166 498.13,-166 498.13,-166"/>
<polygon fill="black" stroke="black" points="498.13,-169.5 508.13,-166 498.13,-162.5 498.13,-169.5"/>
</g>
<!-- PatientModule -->
<g id="node7" class="node">
<title>PatientModule</title>
<polygon fill="#8dd3c7" stroke="black" points="254.43,-122 251.43,-126 230.43,-126 227.43,-122 155.57,-122 155.57,-86 254.43,-86 254.43,-122"/>
<text text-anchor="middle" x="205" y="-99.8" font-family="Times,serif" font-size="14.00">PatientModule</text>
</g>
<!-- PatientModule&#45;&gt;AppModule -->
<g id="edge7" class="edge">
<title>PatientModule&#45;&gt;AppModule</title>
<path fill="none" stroke="black" d="M205,-122.13C205,-142.57 205,-173 205,-173 205,-173 498.04,-173 498.04,-173"/>
<polygon fill="black" stroke="black" points="498.04,-176.5 508.04,-173 498.04,-169.5 498.04,-176.5"/>
</g>
<!-- VideocallModule -->
<g id="node8" class="node">
<title>VideocallModule</title>
<polygon fill="#8dd3c7" stroke="black" points="137.97,-122 134.97,-126 113.97,-126 110.97,-122 24.03,-122 24.03,-86 137.97,-86 137.97,-122"/>
<text text-anchor="middle" x="81" y="-99.8" font-family="Times,serif" font-size="14.00">VideocallModule</text>
</g>
<!-- VideocallModule&#45;&gt;AppModule -->
<g id="edge8" class="edge">
<title>VideocallModule&#45;&gt;AppModule</title>
<path fill="none" stroke="black" d="M81,-122.01C81,-144.49 81,-180 81,-180 81,-180 497.97,-180 497.97,-180"/>
<polygon fill="black" stroke="black" points="497.97,-183.5 507.97,-180 497.97,-176.5 497.97,-183.5"/>
</g>
<!-- AppService -->
<g id="node10" class="node">
<title>AppService</title>
<ellipse fill="#fdb462" stroke="black" cx="1016" cy="-104" rx="56.74" ry="18"/>
<text text-anchor="middle" x="1016" y="-99.8" font-family="Times,serif" font-size="14.00">AppService</text>
</g>
<!-- AppService&#45;&gt;AppModule -->
<g id="edge9" class="edge">
<title>AppService&#45;&gt;AppModule</title>
<path fill="none" stroke="black" d="M1016,-122.01C1016,-144.49 1016,-180 1016,-180 1016,-180 601.76,-180 601.76,-180"/>
<polygon fill="black" stroke="black" points="601.76,-176.5 591.76,-180 601.76,-183.5 601.76,-176.5"/>
</g>
</g>
</svg>
