<?xml version="1.0" encoding="UTF-8" standalone="no"?>
<!DOCTYPE svg PUBLIC "-//W3C//DTD SVG 1.1//EN"
 "http://www.w3.org/Graphics/SVG/1.1/DTD/svg11.dtd">
<!-- Generated by graphviz version 2.46.0 (20210119.1425)
 -->
<!-- Title: dependencies Pages: 1 -->
<svg width="514pt" height="284pt"
 viewBox="0.00 0.00 514.00 284.00" xmlns="http://www.w3.org/2000/svg" xmlns:xlink="http://www.w3.org/1999/xlink">
<g id="graph0" class="graph" transform="scale(1 1) rotate(0) translate(4 280)">
<title>dependencies</title>
<polygon fill="white" stroke="transparent" points="-4,4 -4,-280 510,-280 510,4 -4,4"/>
<text text-anchor="start" x="232.01" y="-42.4" font-family="sans-serif" font-weight="bold" font-size="14.00">Legend</text>
<polygon fill="#ffffb3" stroke="transparent" points="19,-10 19,-30 39,-30 39,-10 19,-10"/>
<text text-anchor="start" x="42.63" y="-15.4" font-family="sans-serif" font-size="14.00"> &#160;Declarations</text>
<polygon fill="#8dd3c7" stroke="transparent" points="132,-10 132,-30 152,-30 152,-10 132,-10"/>
<text text-anchor="start" x="155.73" y="-15.4" font-family="sans-serif" font-size="14.00"> &#160;Module</text>
<polygon fill="#80b1d3" stroke="transparent" points="218,-10 218,-30 238,-30 238,-10 218,-10"/>
<text text-anchor="start" x="241.78" y="-15.4" font-family="sans-serif" font-size="14.00"> &#160;Bootstrap</text>
<polygon fill="#fdb462" stroke="transparent" points="315,-10 315,-30 335,-30 335,-10 315,-10"/>
<text text-anchor="start" x="338.67" y="-15.4" font-family="sans-serif" font-size="14.00"> &#160;Providers</text>
<polygon fill="#fb8072" stroke="transparent" points="411,-10 411,-30 431,-30 431,-10 411,-10"/>
<text text-anchor="start" x="434.73" y="-15.4" font-family="sans-serif" font-size="14.00"> &#160;Exports</text>
<g id="clust1" class="cluster">
<title>cluster_UserModule</title>
<polygon fill="none" stroke="black" stroke-dasharray="1,5" points="8,-70 8,-268 498,-268 498,-70 8,-70"/>
</g>
<g id="clust6" class="cluster">
<title>cluster_UserModule_providers</title>
<polygon fill="none" stroke="black" points="228,-78 228,-130 490,-130 490,-78 228,-78"/>
</g>
<g id="clust4" class="cluster">
<title>cluster_UserModule_exports</title>
<polygon fill="none" stroke="black" points="127,-208 127,-260 333,-260 333,-208 127,-208"/>
</g>
<g id="clust3" class="cluster">
<title>cluster_UserModule_imports</title>
<polygon fill="none" stroke="black" points="16,-78 16,-130 220,-130 220,-78 16,-78"/>
</g>
<!-- AuthModule -->
<g id="node1" class="node">
<title>AuthModule</title>
<polygon fill="#8dd3c7" stroke="black" points="211.55,-122 208.55,-126 187.55,-126 184.55,-122 124.45,-122 124.45,-86 211.55,-86 211.55,-122"/>
<text text-anchor="middle" x="168" y="-99.8" font-family="Times,serif" font-size="14.00">AuthModule</text>
</g>
<!-- UserModule -->
<g id="node3" class="node">
<title>UserModule</title>
<polygon fill="#8dd3c7" stroke="black" points="273.98,-187 270.98,-191 249.98,-191 246.98,-187 188.02,-187 188.02,-151 273.98,-151 273.98,-187"/>
<text text-anchor="middle" x="231" y="-164.8" font-family="Times,serif" font-size="14.00">UserModule</text>
</g>
<!-- AuthModule&#45;&gt;UserModule -->
<g id="edge1" class="edge">
<title>AuthModule&#45;&gt;UserModule</title>
<path fill="none" stroke="black" d="M199.89,-122.11C199.89,-122.11 199.89,-140.99 199.89,-140.99"/>
<polygon fill="black" stroke="black" points="196.39,-140.99 199.89,-150.99 203.39,-140.99 196.39,-140.99"/>
</g>
<!-- LogModule -->
<g id="node2" class="node">
<title>LogModule</title>
<polygon fill="#8dd3c7" stroke="black" points="106.1,-122 103.1,-126 82.1,-126 79.1,-122 23.9,-122 23.9,-86 106.1,-86 106.1,-122"/>
<text text-anchor="middle" x="65" y="-99.8" font-family="Times,serif" font-size="14.00">LogModule</text>
</g>
<!-- LogModule&#45;&gt;UserModule -->
<g id="edge2" class="edge">
<title>LogModule&#45;&gt;UserModule</title>
<path fill="none" stroke="black" d="M65,-122.11C65,-141.34 65,-169 65,-169 65,-169 177.82,-169 177.82,-169"/>
<polygon fill="black" stroke="black" points="177.82,-172.5 187.82,-169 177.82,-165.5 177.82,-172.5"/>
</g>
<!-- LogService  -->
<g id="node4" class="node">
<title>LogService </title>
<polygon fill="#fb8072" stroke="black" points="325.03,-252 240.97,-252 240.97,-216 325.03,-216 325.03,-252"/>
<text text-anchor="middle" x="283" y="-229.8" font-family="Times,serif" font-size="14.00">LogService </text>
</g>
<!-- UserModule&#45;&gt;LogService  -->
<g id="edge3" class="edge">
<title>UserModule&#45;&gt;LogService </title>
<path fill="none" stroke="black" stroke-dasharray="5,2" d="M257.49,-187.11C257.49,-187.11 257.49,-205.99 257.49,-205.99"/>
<polygon fill="black" stroke="black" points="253.99,-205.99 257.49,-215.99 260.99,-205.99 253.99,-205.99"/>
</g>
<!-- UserService  -->
<g id="node5" class="node">
<title>UserService </title>
<polygon fill="#fb8072" stroke="black" points="222.9,-252 135.1,-252 135.1,-216 222.9,-216 222.9,-252"/>
<text text-anchor="middle" x="179" y="-229.8" font-family="Times,serif" font-size="14.00">UserService </text>
</g>
<!-- UserModule&#45;&gt;UserService  -->
<g id="edge4" class="edge">
<title>UserModule&#45;&gt;UserService </title>
<path fill="none" stroke="black" stroke-dasharray="5,2" d="M205.48,-187.11C205.48,-187.11 205.48,-205.99 205.48,-205.99"/>
<polygon fill="black" stroke="black" points="201.98,-205.99 205.48,-215.99 208.98,-205.99 201.98,-205.99"/>
</g>
<!-- LogService -->
<g id="node6" class="node">
<title>LogService</title>
<ellipse fill="#fdb462" stroke="black" cx="426" cy="-104" rx="55.6" ry="18"/>
<text text-anchor="middle" x="426" y="-99.8" font-family="Times,serif" font-size="14.00">LogService</text>
</g>
<!-- LogService&#45;&gt;UserModule -->
<g id="edge5" class="edge">
<title>LogService&#45;&gt;UserModule</title>
<path fill="none" stroke="black" d="M426,-122.11C426,-141.34 426,-169 426,-169 426,-169 284.28,-169 284.28,-169"/>
<polygon fill="black" stroke="black" points="284.28,-165.5 274.28,-169 284.28,-172.5 284.28,-165.5"/>
</g>
<!-- UserService -->
<g id="node7" class="node">
<title>UserService</title>
<ellipse fill="#fdb462" stroke="black" cx="294" cy="-104" rx="58.44" ry="18"/>
<text text-anchor="middle" x="294" y="-99.8" font-family="Times,serif" font-size="14.00">UserService</text>
</g>
<!-- UserService&#45;&gt;UserModule -->
<g id="edge6" class="edge">
<title>UserService&#45;&gt;UserModule</title>
<path fill="none" stroke="black" d="M254.88,-117.47C254.88,-117.47 254.88,-140.86 254.88,-140.86"/>
<polygon fill="black" stroke="black" points="251.38,-140.86 254.88,-150.86 258.38,-140.86 251.38,-140.86"/>
</g>
</g>
</svg>
